PathFileType  4	(X/Y/Z) C:\Users\antoi\Documents\MyRepositories\mobilecap\ResultsAnalysis
DataRate	CameraRate	NumFrames	NumMarkers	Units	OrigDataRate	OrigDataStartFrame	OrigNumFrames
100.0	100.0	4	51	mm	100.0	33	130
Frame#	Time	r_knee			r_shank_antsup			r_ankle			r_calc			r_5meta			r_toe			L_knee			L_shank_antsup			L_ankle			L_calc			L_5meta			L_toe			r_sh2			r_sh3			r_sh4			L_sh2			L_sh3			r_thigh1			r_thigh2			r_thigh3			r_thigh4			r_thigh5			L_thigh1			L_thigh2			L_thigh3			L_thigh4			r.ASIS			r.PSIS			L.ASIS			L.PSIS			C7			R_Shoulder			L_Shoulder			R_Sternum			L_Sternum			R_humerus			R_elbow_med			R_elbow_lat			R_forearm			R_wrist_radius			R_wrist_ulna			L_humerus			L_elbow_med			L_elbow_lat			L_forearm			L_wrist_radius			L_wrist_ulna			R_HJC			L_HJC			R_HJC_reg			L_HJC_reg			
		X1	Y1	Z1	X2	Y2	Z2	X3	Y3	Z3	X4	Y4	Z4	X5	Y5	Z5	X6	Y6	Z6	X7	Y7	Z7	X8	Y8	Z8	X9	Y9	Z9	X10	Y10	Z10	X11	Y11	Z11	X12	Y12	Z12	X13	Y13	Z13	X14	Y14	Z14	X15	Y15	Z15	X16	Y16	Z16	X17	Y17	Z17	X18	Y18	Z18	X19	Y19	Z19	X20	Y20	Z20	X21	Y21	Z21	X22	Y22	Z22	X23	Y23	Z23	X24	Y24	Z24	X25	Y25	Z25	X26	Y26	Z26	X27	Y27	Z27	X28	Y28	Z28	X29	Y29	Z29	X30	Y30	Z30	X31	Y31	Z31	X32	Y32	Z32	X33	Y33	Z33	X34	Y34	Z34	X35	Y35	Z35	X36	Y36	Z36	X37	Y37	Z37	X38	Y38	Z38	X39	Y39	Z39	X40	Y40	Z40	X41	Y41	Z41	X42	Y42	Z42	X43	Y43	Z43	X44	Y44	Z44	X45	Y45	Z45	X46	Y46	Z46	X47	Y47	Z47	X48	Y48	Z48	X49	Y49	Z49	X50	Y50	Z50	X51	Y51	Z51	

33	0.32000000	206.27545	461.50549	-98.36139	208.44444	386.40141	-80.23376	144.09524	93.31983	-137.12332	69.60331	61.14639	-173.76900	242.73197	45.52780	-113.29392	284.80990	63.76003	-171.16676	263.75186	472.62547	-376.73827	251.34366	399.39872	-374.56072	6.48195	219.65571	-316.80237	-59.55887	249.75191	-265.29981	27.32749	115.28385	-339.55910	82.34227	96.61481	-290.30281	194.03757	274.88910	-84.24912	133.29545	395.49653	-86.23470	110.98789	282.78146	-96.21183	192.79797	465.87816	-390.54272	108.21503	378.98766	-377.57845	255.80325	781.31690	-89.32031	271.83647	666.97985	-91.02474	228.19827	639.66733	-45.39430	164.98569	767.58184	-20.62197	170.93367	652.26306	-38.12534	238.58035	762.59523	-381.27871	287.65253	634.21493	-388.71383	129.59767	724.25818	-386.92461	188.83305	592.37502	-385.31233	229.64258	923.58949	-91.60584	39.84927	929.63335	-147.50952	207.31751	916.06298	-347.85462	27.82329	919.83651	-253.60006	84.63167	1401.74785	-203.55538	152.07034	1341.61254	-55.86453	129.28384	1349.81399	-371.17694	199.13825	1315.67670	-195.07229	194.78113	1316.22836	-239.28124	189.91882	1104.29435	19.77553	149.44324	996.28249	-25.13981	172.90654	1018.23222	39.69644	247.54983	919.93931	49.74789	292.81533	809.82278	51.39999	252.71628	794.57838	66.45065	166.95117	1223.43680	-428.43879	119.35414	1006.47642	-399.41152	126.64939	1019.33295	-460.20748	193.83982	934.11629	-485.68600	235.52120	813.91333	-483.52940	202.37246	799.67356	-497.64452	167.13300	844.00658	-111.04584	151.45877	840.05856	-310.67874	169.45413	844.61672	-114.03029	150.39958	829.10061	-282.08283	
34	0.33000000	208.51732	461.66535	-97.69162	209.99547	386.53534	-79.71731	144.35794	93.59752	-137.12411	69.71029	61.46173	-173.81231	242.78269	45.46118	-113.23984	284.92578	63.49839	-171.09346	287.33170	476.95474	-374.82534	278.08301	403.17558	-372.44662	41.75131	211.51167	-316.71799	-26.72159	237.35312	-265.81791	69.38977	108.66243	-339.16070	125.16445	93.56013	-289.31215	194.89648	275.12029	-83.87271	134.95021	396.07690	-86.07130	111.95561	283.51434	-96.23944	216.52787	466.67468	-389.45494	136.07210	375.78698	-377.17892	266.68490	780.62046	-87.95393	280.01532	665.92805	-89.50797	235.01422	639.54714	-44.63382	174.63384	768.81380	-20.32797	178.04230	653.20698	-37.95577	254.72014	766.78697	-380.73223	307.21993	639.44244	-386.99202	146.95708	725.33768	-387.95516	209.51546	595.03535	-385.68896	241.96120	924.37583	-90.56830	52.54982	931.47422	-147.80043	221.00523	918.04672	-346.47759	40.88263	921.53327	-254.06076	98.44887	1403.21364	-203.41163	165.88933	1343.49949	-55.86532	142.59685	1351.04960	-371.16223	212.89734	1317.18963	-195.18710	208.38489	1317.58638	-239.35501	204.14937	1106.75076	20.74481	164.98568	998.21852	-24.28120	188.31351	1020.40419	40.57588	265.98277	924.12678	49.12499	315.11615	815.50624	49.17900	275.88914	799.13654	64.71281	178.08506	1223.95336	-428.70682	126.89288	1007.93084	-398.82493	133.99876	1020.61394	-459.68916	199.18135	933.87371	-485.57104	238.06618	812.88050	-483.43262	204.67640	799.23971	-497.57145	179.20995	845.13772	-110.63150	164.87263	841.92327	-310.37796	181.53470	846.65927	-113.05430	163.10866	830.96504	-280.83824	
35	0.34000000	210.67364	461.82478	-97.05232	211.41039	386.70950	-79.21756	144.58721	93.87432	-137.17411	69.87764	61.83911	-173.90654	242.83111	45.40318	-113.19364	285.04186	63.22196	-171.02484	310.13642	481.07109	-372.87289	304.04400	406.89555	-370.49221	77.68081	202.76000	-316.76616	7.07503	224.07583	-266.34005	112.16359	101.95038	-339.03737	168.53992	90.45430	-288.70418	195.61020	275.39184	-83.49803	136.50269	396.67862	-86.02459	112.82944	284.29036	-96.40442	239.44236	467.15085	-388.06526	163.63576	372.21788	-376.62142	277.25251	779.69577	-86.66164	288.07122	664.74656	-87.97744	241.79639	639.28463	-43.92988	184.14359	769.82129	-20.00508	185.15020	654.00906	-37.80744	270.81336	770.57000	-380.07981	326.35435	644.28681	-385.14922	164.12653	726.27649	-389.14419	229.78253	597.47701	-386.14977	254.21184	924.77721	-89.59098	65.23804	932.99857	-148.14103	234.62102	919.57723	-345.20432	53.95212	922.90967	-254.52048	112.28178	1404.35402	-203.27415	179.72094	1345.02553	-55.87662	155.99121	1351.94390	-371.16078	226.67078	1318.36026	-195.26344	222.05190	1318.60944	-239.39054	218.39520	1108.84500	21.69914	180.52339	999.78954	-23.43098	203.68610	1022.23454	41.45997	284.24223	928.05045	48.56081	337.13848	821.02503	47.00258	298.87924	803.59231	62.92224	189.25488	1224.17872	-428.99440	134.35322	1009.16384	-398.31434	141.30058	1021.68636	-459.22483	204.47548	933.48233	-485.48336	240.62007	811.77937	-483.35235	207.05661	798.75213	-497.48964	191.22537	845.90845	-110.26184	178.19877	843.37991	-310.11008	193.51275	848.30301	-112.14940	175.73522	832.41432	-279.69925	
36	0.35000000	212.82288	461.97105	-96.43520	212.74258	386.91590	-78.71698	144.79165	94.16101	-137.27339	70.10088	62.27711	-174.04052	242.88052	45.35014	-113.15289	285.16822	62.94263	-170.95826	332.11556	484.88520	-370.88219	329.21076	410.47980	-368.69359	114.30628	193.54611	-316.92022	41.94622	210.08643	-266.85421	155.56545	95.30761	-339.17790	212.37227	87.41639	-288.46258	196.21594	275.69999	-83.11512	138.00606	397.31421	-86.07233	113.64967	285.12167	-96.68446	261.51029	467.16756	-386.42725	190.92833	368.20261	-375.92607	287.53342	778.56043	-85.50349	296.00928	663.43286	-86.53281	248.59699	638.85984	-43.32710	193.55603	770.59876	-19.66378	192.26703	654.66843	-37.68086	286.81840	773.87395	-379.30632	345.01414	648.68606	-383.16676	181.10048	727.08163	-390.41634	249.56273	599.67825	-386.64279	266.43064	924.79433	-88.67380	77.91755	934.18778	-148.51189	248.14144	920.62438	-344.08121	67.03687	923.96422	-254.96603	126.13969	1405.16935	-203.14998	193.55398	1346.16002	-55.89573	169.45476	1352.49961	-371.19035	240.44579	1319.18148	-195.30852	235.76876	1319.29880	-239.40387	232.74339	1110.53692	22.57932	196.05428	1000.95987	-22.55366	219.11460	1023.70930	42.35154	302.39385	931.66371	48.02542	358.86418	826.32441	44.84301	321.63504	807.87151	61.11932	200.45687	1224.11337	-429.31654	141.81576	1010.16882	-397.85809	148.63072	1022.53066	-458.79219	209.77434	932.93387	-485.41835	243.20988	810.59158	-483.30234	209.52705	798.18783	-497.39802	203.20229	846.31315	-109.94200	191.42050	844.40776	-309.87776	205.40663	849.49110	-111.33505	188.29792	833.41629	-278.72098	
